<svg width="28" height="28" viewBox="0 0 28 28" fill="none" xmlns="http://www.w3.org/2000/svg">
<path opacity="0.4" d="M13.9988 27.331C12.9735 27.331 11.9495 26.9417 11.1668 26.1643L10.1935 25.191C9.81612 24.815 9.31079 24.607 8.77479 24.6057H7.40546C5.19212 24.6057 3.39079 22.8043 3.39079 20.591V19.2203C3.38946 18.6857 3.18146 18.1803 2.80412 17.8003L1.84679 16.8443C0.27879 15.2857 0.272123 12.7377 1.83212 11.1683L2.80546 10.1937C3.18146 9.81632 3.38946 9.31099 3.39079 8.77499V7.40699C3.39079 5.19232 5.19212 3.39099 7.40546 3.39099H8.77612C9.31079 3.39099 9.81479 3.18299 10.1948 2.80299L11.1535 1.84699C12.7121 0.278986 15.2588 0.270986 16.8295 1.83232L17.8028 2.80565C18.1815 3.18299 18.6855 3.39099 19.2201 3.39099H20.5908C22.8041 3.39099 24.6055 5.19232 24.6055 7.40699V8.77632C24.6068 9.31099 24.8148 9.81632 25.1921 10.1963L26.1495 11.1537C26.9081 11.9083 27.3281 12.9137 27.3321 13.987C27.3348 15.0537 26.9241 16.0577 26.1761 16.8163C26.1628 16.8297 26.1508 16.8443 26.1375 16.8563L25.1908 17.803C24.8148 18.1803 24.6068 18.6857 24.6055 19.2217V20.591C24.6055 22.8043 22.8041 24.6057 20.5908 24.6057H19.2201C18.6855 24.607 18.1801 24.815 17.8015 25.1923L16.8428 26.1497C16.0615 26.9363 15.0295 27.331 13.9988 27.331" fill="#393939"/>
<path fill-rule="evenodd" clip-rule="evenodd" d="M11.3904 11.4012C11.1704 11.6212 10.8851 11.7399 10.5691 11.7399C10.2731 11.7399 9.9824 11.6186 9.74907 11.3999C9.52774 11.1799 9.4024 10.8786 9.4024 10.5732C9.4024 10.2826 9.52507 9.98389 9.74107 9.75323C9.85974 9.63323 10.0011 9.54256 10.1424 9.49456C10.5451 9.31056 11.0797 9.41856 11.3971 9.75189C11.5104 9.86523 11.5971 9.98923 11.6544 10.1186C11.7171 10.2572 11.7491 10.4146 11.7491 10.5732C11.7491 10.8906 11.6224 11.1852 11.3904 11.4012ZM18.254 9.74643C17.7993 9.29309 17.0593 9.29309 16.6047 9.74643L9.75134 16.5998C9.29667 17.0544 9.29667 17.7944 9.75134 18.2504C9.97267 18.4704 10.2647 18.5918 10.5767 18.5918C10.8887 18.5918 11.1807 18.4704 11.4007 18.2504L18.254 11.3971C18.7087 10.9411 18.7087 10.2024 18.254 9.74643ZM17.8744 16.3519C17.4424 16.1706 16.9304 16.2692 16.5891 16.6106C16.5184 16.6932 16.4184 16.8212 16.3504 16.9719C16.2784 17.1346 16.2691 17.3092 16.2691 17.4266C16.2691 17.5439 16.2784 17.7172 16.3504 17.8799C16.4171 18.0292 16.4971 18.1506 16.6024 18.2559C16.8437 18.4799 17.1237 18.5932 17.4357 18.5932C17.7317 18.5932 18.0224 18.4732 18.2611 18.2506C18.4731 18.0386 18.5891 17.7452 18.5891 17.4266C18.5891 17.1066 18.4731 16.8146 18.2597 16.6012C18.1424 16.4852 18.0011 16.3946 17.8744 16.3519Z" fill="#FFA31A"/>
</svg>
