<svg width="104" height="32" viewBox="0 0 104 32" fill="none" xmlns="http://www.w3.org/2000/svg">
<path d="M40.1683 14.486C40.4923 14.006 40.9363 13.616 41.5003 13.316C42.0763 13.016 42.7303 12.866 43.4623 12.866C44.3143 12.866 45.0823 13.076 45.7663 13.496C46.4623 13.916 47.0083 14.516 47.4043 15.296C47.8123 16.064 48.0163 16.958 48.0163 17.978C48.0163 18.998 47.8123 19.904 47.4043 20.696C47.0083 21.476 46.4623 22.082 45.7663 22.514C45.0823 22.946 44.3143 23.162 43.4623 23.162C42.7183 23.162 42.0643 23.018 41.5003 22.73C40.9483 22.43 40.5043 22.046 40.1683 21.578V23H37.6483V9.68H40.1683V14.486ZM45.4423 17.978C45.4423 17.378 45.3163 16.862 45.0643 16.43C44.8243 15.986 44.5003 15.65 44.0923 15.422C43.6963 15.194 43.2643 15.08 42.7963 15.08C42.3403 15.08 41.9083 15.2 41.5003 15.44C41.1043 15.668 40.7803 16.004 40.5283 16.448C40.2883 16.892 40.1683 17.414 40.1683 18.014C40.1683 18.614 40.2883 19.136 40.5283 19.58C40.7803 20.024 41.1043 20.366 41.5003 20.606C41.9083 20.834 42.3403 20.948 42.7963 20.948C43.2643 20.948 43.6963 20.828 44.0923 20.588C44.5003 20.348 44.8243 20.006 45.0643 19.562C45.3163 19.118 45.4423 18.59 45.4423 17.978ZM49.1995 17.978C49.1995 16.97 49.3975 16.076 49.7935 15.296C50.2015 14.516 50.7475 13.916 51.4315 13.496C52.1275 13.076 52.9015 12.866 53.7535 12.866C54.4975 12.866 55.1455 13.016 55.6975 13.316C56.2615 13.616 56.7115 13.994 57.0475 14.45V13.028H59.5855V23H57.0475V21.542C56.7235 22.01 56.2735 22.4 55.6975 22.712C55.1335 23.012 54.4795 23.162 53.7355 23.162C52.8955 23.162 52.1275 22.946 51.4315 22.514C50.7475 22.082 50.2015 21.476 49.7935 20.696C49.3975 19.904 49.1995 18.998 49.1995 17.978ZM57.0475 18.014C57.0475 17.402 56.9275 16.88 56.6875 16.448C56.4475 16.004 56.1235 15.668 55.7155 15.44C55.3075 15.2 54.8695 15.08 54.4015 15.08C53.9335 15.08 53.5015 15.194 53.1055 15.422C52.7095 15.65 52.3855 15.986 52.1335 16.43C51.8935 16.862 51.7735 17.378 51.7735 17.978C51.7735 18.578 51.8935 19.106 52.1335 19.562C52.3855 20.006 52.7095 20.348 53.1055 20.588C53.5135 20.828 53.9455 20.948 54.4015 20.948C54.8695 20.948 55.3075 20.834 55.7155 20.606C56.1235 20.366 56.4475 20.03 56.6875 19.598C56.9275 19.154 57.0475 18.626 57.0475 18.014ZM67.5727 12.884C68.7607 12.884 69.7207 13.262 70.4527 14.018C71.1847 14.762 71.5507 15.806 71.5507 17.15V23H69.0307V17.492C69.0307 16.7 68.8327 16.094 68.4367 15.674C68.0407 15.242 67.5007 15.026 66.8167 15.026C66.1207 15.026 65.5687 15.242 65.1607 15.674C64.7647 16.094 64.5667 16.7 64.5667 17.492V23H62.0467V13.028H64.5667V14.27C64.9027 13.838 65.3287 13.502 65.8447 13.262C66.3727 13.01 66.9487 12.884 67.5727 12.884ZM79.8511 23L76.4671 18.752V23H73.9471V9.68H76.4671V17.258L79.8151 13.028H83.0911L78.6991 18.032L83.1271 23H79.8511Z" fill="white"/>
<path d="M91.7848 10.436V19.256C91.7848 20.48 91.4308 21.434 90.7228 22.118C90.0148 22.79 89.0668 23.126 87.8788 23.126C86.6788 23.126 85.7068 22.778 84.9628 22.082C84.2308 21.386 83.8648 20.414 83.8648 19.166H86.3848C86.3968 19.706 86.5228 20.126 86.7628 20.426C87.0148 20.726 87.3748 20.876 87.8428 20.876C88.2988 20.876 88.6468 20.732 88.8868 20.444C89.1268 20.156 89.2468 19.76 89.2468 19.256V10.436H91.7848ZM99.0624 23.126C98.1864 23.126 97.3944 22.976 96.6864 22.676C95.9904 22.376 95.4384 21.944 95.0304 21.38C94.6224 20.816 94.4124 20.15 94.4004 19.382H97.1004C97.1364 19.898 97.3164 20.306 97.6404 20.606C97.9764 20.906 98.4324 21.056 99.0084 21.056C99.5964 21.056 100.058 20.918 100.394 20.642C100.73 20.354 100.898 19.982 100.898 19.526C100.898 19.154 100.784 18.848 100.556 18.608C100.328 18.368 100.04 18.182 99.6924 18.05C99.3564 17.906 98.8884 17.75 98.2884 17.582C97.4724 17.342 96.8064 17.108 96.2904 16.88C95.7864 16.64 95.3484 16.286 94.9764 15.818C94.6164 15.338 94.4364 14.702 94.4364 13.91C94.4364 13.166 94.6224 12.518 94.9944 11.966C95.3664 11.414 95.8884 10.994 96.5604 10.706C97.2324 10.406 98.0004 10.256 98.8644 10.256C100.16 10.256 101.21 10.574 102.014 11.21C102.83 11.834 103.28 12.71 103.364 13.838H100.592C100.568 13.406 100.382 13.052 100.034 12.776C99.6984 12.488 99.2484 12.344 98.6844 12.344C98.1924 12.344 97.7964 12.47 97.4964 12.722C97.2084 12.974 97.0644 13.34 97.0644 13.82C97.0644 14.156 97.1724 14.438 97.3884 14.666C97.6164 14.882 97.8924 15.062 98.2164 15.206C98.5524 15.338 99.0204 15.494 99.6204 15.674C100.436 15.914 101.102 16.154 101.618 16.394C102.134 16.634 102.578 16.994 102.95 17.474C103.322 17.954 103.508 18.584 103.508 19.364C103.508 20.036 103.334 20.66 102.986 21.236C102.638 21.812 102.128 22.274 101.456 22.622C100.784 22.958 99.9864 23.126 99.0624 23.126Z" fill="#FFA31A"/>
<path d="M16.4062 0C13.2417 -3.77363e-08 10.1483 0.938383 7.51713 2.69649C4.88594 4.45459 2.83518 6.95345 1.62418 9.87706C0.413176 12.8007 0.096322 16.0177 0.713685 19.1214C1.33105 22.2251 2.8549 25.0761 5.09254 27.3137C7.33018 29.5513 10.1811 31.0752 13.2848 31.6926C16.3885 32.3099 19.6056 31.9931 22.5292 30.7821C25.4528 29.5711 27.9517 27.5203 29.7098 24.8891C31.4679 22.2579 32.4062 19.1645 32.4062 16L24.4062 16C24.4062 17.5823 23.9371 19.129 23.058 20.4446C22.179 21.7602 20.9295 22.7855 19.4677 23.391C18.0059 23.9965 16.3974 24.155 14.8455 23.8463C13.2937 23.5376 11.8682 22.7757 10.7494 21.6569C9.63057 20.538 8.86865 19.1126 8.55997 17.5607C8.25129 16.0089 8.40971 14.4003 9.01521 12.9385C9.62072 11.4767 10.6461 10.2273 11.9617 9.34824C13.2773 8.46919 14.824 8 16.4062 8V0Z" fill="white"/>
<path d="M16.4062 0C14.3051 -2.5056e-08 12.2245 0.413852 10.2833 1.21793C8.3421 2.022 6.57828 3.20055 5.09254 4.68629C3.6068 6.17203 2.42825 7.93586 1.62418 9.87707C0.820102 11.8183 0.40625 13.8989 0.40625 16H8.40625C8.40625 14.9494 8.61318 13.9091 9.01521 12.9385C9.41725 11.9679 10.0065 11.086 10.7494 10.3431C11.4923 9.60028 12.3742 9.011 13.3448 8.60896C14.3154 8.20693 15.3557 8 16.4062 8V0Z" fill="#FFA31A"/>
<circle cx="16.4062" cy="16" r="5" fill="#FFA31A"/>
<path d="M21.4062 16C21.4062 15.3434 21.2769 14.6932 21.0256 14.0866C20.7744 13.48 20.4061 12.9288 19.9418 12.4645C19.4775 12.0002 18.9263 11.6319 18.3197 11.3806C17.713 11.1293 17.0629 11 16.4062 11C15.7496 11 15.0995 11.1293 14.4928 11.3806C13.8862 11.6319 13.335 12.0002 12.8707 12.4645C12.4064 12.9288 12.0381 13.48 11.7869 14.0866C11.5356 14.6932 11.4062 15.3434 11.4063 16L16.4062 16H21.4062Z" fill="white"/>
</svg>
